<?xml version="1.0" standalone="no"?>
<svg xmlns="http://www.w3.org/2000/svg" viewBox="0 0 165.16 123.56" width="165.16" height="123.56"><rect fill="#5959d6" width="165.16" height="123.56" x="0" y="0"></rect><g fill="white" color="white" transform="translate(59.984 12) scale(0.9615385)"><svg width="47.0" height="52.0" x="0.0" y="0.0" viewBox="0 0 47 52"><path fill="currentColor" fill-rule="evenodd" d="M22.404 0L21.29.767 20.6 5.81l-2.234 4.855-2.774 6.42-.865 4.092v.01l.526 4.614.29.893-.031-.028-2.08-2.129-.036-.037-.04-.032-.708-.542-.108-.083-.13-.04-.855-.253-.078-.023-.083-.005-.81-.051-.142-.01-.135.045-.605.2-.169.056-.125.127-.523.534-.068.07-.048.084-.312.553-.311.22-2.012.838-.477.198-.093-.503-.038-2.609 2-.354 1.151-.388 1.096-.82.593-.986-1.077-.099-1.302.107-1.088.47-1.297 1.382.444-2.69.868-.284 1.368-.683 1.035-.957.436-1.283-1.182.055L7.35 17l-1.057.64-.717.966-.345 1.224-.379 1.878-.813-1.378-.949-1.12-1.079-.686-1.015-.34.119.882.723 1.488.923 1.026 1.325.678.714.292-.134 1.116.099 1.688-.862-1.195-.996-.845-1.138-.474-1.03-.192L0 22.6l.606.87.876.897 1 .752 1.168.48 1.174.294.048.708.013.107-1.32.55 1.406.172.208 1.737.469 2.878.906-.758-.685-3.748.458.056 2.468.301.112.06.183.268.345.583.685 1.876.237 1.832.001.009v.008l.329 2.148.006.04.01.037.521 1.972.025.094.049.083 1.384 2.404.051.089.074.072.701.679.053.052.062.038 1.24.795.05.032.057.024 1.448.62.055.023.06.014 2.303.565.05.012.05.005 3.13.32 2.068.586.955.988 1.45 2.688.009.013.007.014 1.784 3.003.028.048.034.04 1.193 1.462.285.35.44-.096 3.104-.678.078-.017.071-.033 3.739-1.712.074-.035.066-.05 2.986-2.289.113-.086.073-.124 1.957-3.34.068-.119.023-.135.085-.525.584-3.628.208-1.287-1.209.49-3.554 1.443-3.363.373-3.206-.338-1.723-.686-1.255-1.028.02-.132 2.323-1.699.038-.028.034-.032 3.12-2.959 1.536-1.376.04-.036.035-.042 2.854-3.441.022-.026.019-.028 2.893-4.225.014-.022.014-.023 3.073-5.27.057-.096.024-.107.83-3.535.094-.396-.286-.29-1.511-1.528-.335-.338-.445.167-2.995 1.123-3.612 1.391-3.144 1.007-3.329.511-.17-1.258-1.814 1.985-3.474 2.622-.078-.093 3.327-3.087 1.917-2.325-.338-2.493-1.03-3.536-.82 1.75-1.78 2.763-2.747 2.735-.091-.082 2.373-3.056 1.683-2.795 1.053-2.352-2.334-4.378-.62 2.1-1.556 3.498-1.957 2.9-.106-.06 1.539-3.142 1.537-3.729.47-2.24L24.109.825 22.404 0zm3.174 23.824l1.715-1.228 1.798-1.553 1.87-2.031-.241-1.772 3.398-.523 3.22-1.03 3.632-1.4 2.988-1.12 1.512 1.529-.65 2.764-3.917 1.618-3.789.981-4.16.516 4.186.15 3.923-.838 3.223-1.048-2.384 4.088-3.26.506-3.24.093-2.628-.097 2.65.559 3.135.087 2.726-.162-2.234 3.261-2.568.008-2.237-.301-2.263-.427 2.033.865 2.468.507 2.041.079-2.45 2.956-1.243-.262-1.983-.51-1.504-.459 1.384.787 1.965.716.943.2-1.362 1.22-3.128 2.965-2.564 1.877-.137.846 1.67 1.37 1.923.766 3.386.354 3.543-.391 3.648-1.481-.575 3.564-1.969.33-2.718.033-2.447-.05-1.48-.154 1.44.498h.007l2.425.262 2.902.075 1.594-.145-1.405 2.4-1.8-.061-2.132-.183-2.162-.458-1.76-.577 1.62.937 2.195.715h.006l2.16.284 1.4.08-2.497 1.914-2.618-.821-1.995-.766-1.914-.877 1.701 1.276 1.864.852 2.088.864-2.884 1.32-2.864-1.749-1.8-1.294 1.41 1.57 2.262 1.785-2.506.547-1.192-1.461-1.784-3.003-1.496-2.776-1.163-1.205-2.321-.657-3.194-.326-2.304-.565-1.45-.619-1.239-.793-.7-.68-1.384-2.403-.522-1.97-.328-2.15-.247-1.912-.737-2.017-.391-.66-.3-.44-.393-.207-3.05-.278 2.535-.91.513-.362.391-.698.525-.534.605-.2.81.052.854.253.706.542 2.095 2.145.993.899.422 1.3L19.54 34.5l3.496 2.26 3.288-.11 1.955-2.856 1.22-3.563-1.327.37-2.121.273-.027-.12L28 30.139l1.732-.58.726-2.12v-.01l.128-2.061-1.157.694-3.17 1.311-.053-.11 3.056-1.69 1.375-1.039.275-4.49-1.39 1.35-1.87 1.46-2.008 1.074-.065-.104zm-14.874 1.412l-.383.249-.095.447.25.381.446.096.382-.25.094-.446-.248-.382-.446-.095z"></path></svg></g><path fill="white" fill-rule="nonzero" d="M8.36 34.56Q6.88 34.56 5.76 34.32Q4.64 34.08 3.82 33.16Q3 32.24 3 30.32L3 30.32Q3 27.64 4.62 23.12Q6.24 18.60 8.88 14.04L8.88 14.04Q6.88 14.16 5.72 14.64Q4.56 15.12 4.20 16.12L4.20 16.12Q4.36 16.12 4.54 16.52Q4.72 16.92 4.72 17.36L4.72 17.36Q4.72 18.08 4.08 18.50Q3.44 18.92 2.48 18.92L2.48 18.92Q1.36 18.92 0.68 18.32Q0 17.72 0 16.60L0 16.60Q0 15.24 1.06 14.12Q2.12 13 4 12.34Q5.88 11.68 8.16 11.68L8.16 11.68Q9 11.68 10.24 11.80L10.24 11.80Q13.52 6.60 17.18 3.30Q20.84 0 24.16 0L24.16 0Q26.08 0 27.32 0.56L27.32 0.56L21.04 30L15.28 30L18.36 15.48Q16.88 14.80 15.64 14.48Q14.40 14.16 13 14.04L13 14.04Q10.72 18.96 9.26 24.10Q7.80 29.24 7.80 32.32L7.80 32.32Q7.80 33.84 8.36 34.56L8.36 34.56ZM18.72 13.72L21.04 2.84Q19.32 3.76 17.46 6.26Q15.60 8.76 13.84 12.32L13.84 12.32Q16.72 12.88 18.72 13.72L18.72 13.72ZM30.36 30L36.16 2.80Q33.48 3.92 32.02 6.16Q30.56 8.40 30.56 11.56L30.56 11.56Q30.56 13.04 30.84 13.62Q31.12 14.20 31.12 14.28L31.12 14.28Q28.96 14.28 27.90 13.38Q26.84 12.48 26.84 10.40L26.84 10.40Q26.84 7.84 28.94 5.42Q31.04 3 34.32 1.50Q37.60 0 40.88 0L40.88 0Q41.44 0 42.48 0.08L42.48 0.08L39.92 12L45.80 12L48.36 0.08L54.12 0.08L47.76 30L42 30L45.20 14.96L39.32 14.96L36.12 30L30.36 30ZM70.40 30.68Q67.28 30.68 67.28 28L67.28 28Q67.28 27.12 67.54 25.98Q67.80 24.84 68.28 23.04L68.28 23.04Q68.84 21.16 69.12 19.84Q69.40 18.52 69.40 17.48L69.40 17.48Q69.40 14.76 67 14.76L67 14.76Q66.36 14.76 65.68 14.92L65.68 14.92L62.48 30L56.72 30L62.16 4.56L68.08 3.76L66.12 13L66.44 13Q68 13 69.32 11.92Q70.64 10.84 71.38 9.22Q72.12 7.60 72.12 6.04L72.12 6.04Q72.12 4.20 71.02 3.02Q69.92 1.84 67.72 1.84L67.72 1.84Q64.48 1.84 62.04 3Q59.60 4.16 58.26 6.36Q56.92 8.56 56.92 11.56L56.92 11.56Q56.92 13.04 57.20 13.62Q57.48 14.20 57.48 14.28L57.48 14.28Q55.32 14.28 54.26 13.38Q53.20 12.48 53.20 10.40L53.20 10.40Q53.20 7.84 55.30 5.42Q57.40 3 60.68 1.50Q63.96 0 67.24 0L67.24 0Q70.24 0 72.28 0.88Q74.32 1.76 75.32 3.22Q76.32 4.68 76.32 6.40L76.32 6.40Q76.32 8.28 75.16 10.16Q74 12.04 72 13.24L72 13.24Q73.52 13.68 74.14 14.70Q74.76 15.72 74.76 17.24L74.76 17.24Q74.76 18.40 74.48 19.70Q74.20 21 73.68 22.92L73.68 22.92Q73.36 24.16 73.08 25.36Q72.80 26.56 72.80 27.36L72.80 27.36Q72.80 28.28 73.22 29Q73.64 29.72 74.36 30L74.36 30Q71.92 30.68 70.40 30.68L70.40 30.68ZM87.56 30L86.92 2.68Q84.08 3.76 82.52 6.02Q80.96 8.28 80.96 11.56L80.96 11.56Q80.96 13.04 81.24 13.62Q81.52 14.20 81.52 14.28L81.52 14.28Q79.36 14.28 78.30 13.38Q77.24 12.48 77.24 10.40L77.24 10.40Q77.24 7.84 79.34 5.42Q81.44 3 84.72 1.50Q88 0 91.28 0L91.28 0Q91.84 0 92.88 0.08L92.88 0.08L93.24 24.68L101.64 0.20L104.44 0.20L93.32 30L87.56 30ZM114.12 30.48Q113.32 30.48 112.46 30.28Q111.60 30.08 110.36 29.72L110.36 29.72Q108.88 29.28 107.92 29.08Q106.96 28.88 105.92 28.88L105.92 28.88Q103.68 28.88 101.52 30.04L101.52 30.04L101.36 30.04Q101.12 29.08 101.12 28.16L101.12 28.16Q101.12 26.48 101.98 24.86Q102.84 23.24 104.08 21.88Q105.32 20.52 107.48 18.40L107.48 18.40Q109.76 16.20 111.16 14.62Q112.56 13.04 113.52 11.14Q114.48 9.24 114.48 7.16L114.48 7.16Q114.48 4.88 113.74 3.56Q113 2.24 111.48 2.24L111.48 2.24Q110.08 2.24 109.20 3.18Q108.32 4.12 108.32 5.48L108.32 5.48Q108.32 6.84 108.86 7.90Q109.40 8.96 110.24 9.44L110.24 9.44L110.24 9.60Q109.56 10.24 108.76 10.60Q107.96 10.96 107.20 10.96L107.20 10.96Q105.96 10.96 105.14 9.84Q104.32 8.72 104.32 6.80L104.32 6.80Q104.32 5.12 105.30 3.56Q106.28 2 108.20 1Q110.12 0 112.72 0L112.72 0Q116.20 0 118.34 1.94Q120.48 3.88 120.48 7.28L120.48 7.28Q120.48 9.44 119.38 11.28Q118.28 13.12 116.68 14.56Q115.08 16 112.40 18.04L112.40 18.04Q109.76 20.04 108.20 21.48Q106.64 22.92 105.80 24.52L105.80 24.52Q106.96 24.20 108.28 24.20L108.28 24.20Q109.24 24.20 110.28 24.36Q111.32 24.52 112.24 24.72L112.24 24.72Q112.40 24.76 113.30 24.94Q114.20 25.12 114.92 25.12L114.92 25.12Q116 25.12 116.92 24.66Q117.84 24.20 118.84 23.08L118.84 23.08L118.96 23.16Q119.48 24.64 119.48 25.64L119.48 25.64Q119.48 27.04 118.74 28.14Q118 29.24 116.76 29.86Q115.52 30.48 114.12 30.48L114.12 30.48ZM128.96 30.20Q125.44 30.20 123.56 28.68Q121.68 27.16 121.68 24.36L121.68 24.36Q121.68 21.84 123.12 20.30Q124.56 18.76 126.88 18.76L126.88 18.76Q129.32 18.76 129.72 20.80L129.72 20.80Q128.08 21 127.10 21.98Q126.12 22.96 126.12 24.52L126.12 24.52Q126.12 25.92 126.96 26.72Q127.80 27.52 129.20 27.52L129.20 27.52Q131.52 27.52 133 25.44Q134.48 23.36 134.48 20.12L134.48 20.12Q134.48 17.36 133.32 15.86Q132.16 14.36 130.08 14.36L130.08 14.36Q127.96 14.36 124.84 16.16L124.84 16.16L124.32 15.80L127.40 0.64Q131.92 1.16 134.12 1.16L134.12 1.16Q137.76 1.16 141.08 0.04L141.08 0.04Q141.16 0.92 141.16 1.36L141.16 1.36Q141.16 3.44 140.06 4.72Q138.96 6 136.56 6L136.56 6Q135.64 6 134.36 5.80Q133.08 5.60 131.92 5.36L131.92 5.36Q130.92 5.16 129.88 5L129.88 5L128.28 12.24Q130.88 11 133.24 11L133.24 11Q136.52 11 138.42 13.22Q140.32 15.44 140.32 19.24L140.32 19.24Q140.32 22.48 138.90 24.96Q137.48 27.44 134.90 28.82Q132.32 30.20 128.96 30.20L128.96 30.20Z" transform="translate(12 77) scale(1)"></path></svg>